<mxfile host="drawio-plugin" modified="2023-08-27T16:27:00.611Z" agent="5.0 (Windows NT 10.0; Win64; x64) AppleWebKit/537.36 (KHTML, like Gecko) Chrome/111.0.0.0 Safari/537.36" version="20.5.3" etag="LDeYnSLFnjqS-ZAopnu-" type="embed"><diagram id="FkeHzNsXNy2RxRt19RMm" name="Page-1"><mxGraphModel dx="1070" dy="750" grid="1" gridSize="10" guides="1" tooltips="1" connect="1" arrows="1" fold="1" page="1" pageScale="1" pageWidth="850" pageHeight="1100" math="0" shadow="0"><root><mxCell id="0"/><mxCell id="1" parent="0"/><mxCell id="19" value="&lt;span style=&quot;font-family: &amp;quot;Roboto mono&amp;quot;, Consolas, &amp;quot;Courier New&amp;quot;, monospace; font-size: 14px;&quot;&gt;&lt;b&gt;QuPathProjectHandler&lt;/b&gt;&lt;/span&gt;" style="swimlane;fontStyle=0;align=center;verticalAlign=top;childLayout=stackLayout;horizontal=1;startSize=30;horizontalStack=0;resizeParent=1;resizeParentMax=0;resizeLast=0;collapsible=0;marginBottom=0;html=1;labelBackgroundColor=none;fontColor=#000000;" parent="1" vertex="1"><mxGeometry x="440" y="160" width="200" height="78" as="geometry"/></mxCell><mxCell id="21" value="&lt;span style=&quot;&quot;&gt;+ __init__(qupath_project_path)&lt;/span&gt;" style="text;html=1;strokeColor=none;fillColor=none;align=left;verticalAlign=middle;spacingLeft=4;spacingRight=4;overflow=hidden;rotatable=0;points=[[0,0.5],[1,0.5]];portConstraint=eastwest;labelBackgroundColor=none;fontColor=#000000;" parent="19" vertex="1"><mxGeometry y="30" width="200" height="20" as="geometry"/></mxCell><mxCell id="24" value="" style="line;strokeWidth=1;fillColor=none;align=left;verticalAlign=middle;spacingTop=-1;spacingLeft=3;spacingRight=3;rotatable=0;labelPosition=right;points=[];portConstraint=eastwest;labelBackgroundColor=#9a7e7e;fontColor=#000000;" parent="19" vertex="1"><mxGeometry y="50" width="200" height="8" as="geometry"/></mxCell><mxCell id="25" value="+ images: &lt;font face=&quot;Roboto Mono&quot;&gt;QuPathImage&lt;/font&gt;" style="text;html=1;strokeColor=none;fillColor=none;align=left;verticalAlign=middle;spacingLeft=4;spacingRight=4;overflow=hidden;rotatable=0;points=[[0,0.5],[1,0.5]];portConstraint=eastwest;labelBackgroundColor=none;fontColor=#000000;" parent="19" vertex="1"><mxGeometry y="58" width="200" height="20" as="geometry"/></mxCell><mxCell id="43" style="edgeStyle=none;html=1;entryX=0.455;entryY=0.5;entryDx=0;entryDy=0;entryPerimeter=0;fontColor=#000000;exitX=-0.007;exitY=0.092;exitDx=0;exitDy=0;exitPerimeter=0;" parent="1" source="26" target="31" edge="1"><mxGeometry relative="1" as="geometry"/></mxCell><mxCell id="26" value="&lt;span style=&quot;font-family: &amp;quot;Roboto mono&amp;quot;, Consolas, &amp;quot;Courier New&amp;quot;, monospace; font-size: 14px;&quot;&gt;&lt;b&gt;GeoJSONHandler&lt;/b&gt;&lt;/span&gt;" style="swimlane;fontStyle=0;align=center;verticalAlign=top;childLayout=stackLayout;horizontal=1;startSize=30;horizontalStack=0;resizeParent=1;resizeParentMax=0;resizeLast=0;collapsible=0;marginBottom=0;html=1;labelBackgroundColor=none;fontColor=#000000;" parent="1" vertex="1"><mxGeometry x="440" y="280" width="200" height="160" as="geometry"/></mxCell><mxCell id="27" value="&lt;span style=&quot;&quot;&gt;+ __init__(geojson_folder_path)&lt;/span&gt;" style="text;html=1;strokeColor=none;fillColor=none;align=left;verticalAlign=middle;spacingLeft=4;spacingRight=4;overflow=hidden;rotatable=0;points=[[0,0.5],[1,0.5]];portConstraint=eastwest;labelBackgroundColor=none;fontColor=#000000;" parent="26" vertex="1"><mxGeometry y="30" width="200" height="20" as="geometry"/></mxCell><mxCell id="28" value="" style="line;strokeWidth=1;fillColor=none;align=left;verticalAlign=middle;spacingTop=-1;spacingLeft=3;spacingRight=3;rotatable=0;labelPosition=right;points=[];portConstraint=eastwest;labelBackgroundColor=#9a7e7e;fontColor=#000000;" parent="26" vertex="1"><mxGeometry y="50" width="200" height="8" as="geometry"/></mxCell><mxCell id="29" value="+ geojson_folder_path&lt;br&gt;+ geojson_files_to_content&lt;br&gt;+ geojson_files&lt;br&gt;+ file_to_annotations&lt;br&gt;+ class_id_mapping&lt;br&gt;+ unique_classes&lt;br&gt;" style="text;html=1;strokeColor=none;fillColor=none;align=left;verticalAlign=middle;spacingLeft=4;spacingRight=4;overflow=hidden;rotatable=0;points=[[0,0.5],[1,0.5]];portConstraint=eastwest;labelBackgroundColor=none;fontColor=#000000;" parent="26" vertex="1"><mxGeometry y="58" width="200" height="102" as="geometry"/></mxCell><mxCell id="45" style="edgeStyle=none;html=1;entryX=0.5;entryY=0;entryDx=0;entryDy=0;fontColor=#000000;" parent="1" source="30" target="38" edge="1"><mxGeometry relative="1" as="geometry"/></mxCell><mxCell id="30" value="&lt;span style=&quot;font-size: 14px;&quot;&gt;&lt;b style=&quot;&quot;&gt;&lt;font face=&quot;Roboto mono&quot;&gt;QuGeoCOCO&lt;/font&gt;&lt;/b&gt;&lt;/span&gt;" style="swimlane;fontStyle=0;align=center;verticalAlign=top;childLayout=stackLayout;horizontal=1;startSize=30;horizontalStack=0;resizeParent=1;resizeParentMax=0;resizeLast=0;collapsible=0;marginBottom=0;html=1;labelBackgroundColor=none;fontColor=#000000;" parent="1" vertex="1"><mxGeometry x="40" y="160" width="330" height="210" as="geometry"/></mxCell><mxCell id="31" value="&lt;span style=&quot;&quot;&gt;+ __init__(&lt;br&gt;&lt;span style=&quot;white-space: pre;&quot;&gt;&#9;&lt;/span&gt;qupath_project_path,&lt;br&gt;&lt;span style=&quot;white-space: pre;&quot;&gt;&#9;&lt;/span&gt;geojson_folder_path,&lt;br&gt;&lt;span style=&quot;white-space: pre;&quot;&gt;&#9;&lt;/span&gt;qugeococo_categories: List[str]&lt;br&gt;)&lt;br&gt;&lt;/span&gt;" style="text;html=1;strokeColor=none;fillColor=none;align=left;verticalAlign=middle;spacingLeft=4;spacingRight=4;overflow=hidden;rotatable=0;points=[[0,0.5],[1,0.5]];portConstraint=eastwest;labelBackgroundColor=none;fontColor=#000000;" parent="30" vertex="1"><mxGeometry y="30" width="330" height="90" as="geometry"/></mxCell><mxCell id="32" value="" style="line;strokeWidth=1;fillColor=none;align=left;verticalAlign=middle;spacingTop=-1;spacingLeft=3;spacingRight=3;rotatable=0;labelPosition=right;points=[];portConstraint=eastwest;labelBackgroundColor=#9a7e7e;fontColor=#000000;" parent="30" vertex="1"><mxGeometry y="120" width="330" height="8" as="geometry"/></mxCell><mxCell id="33" value="+ qpp_handler:&amp;nbsp;&lt;font face=&quot;Roboto Mono&quot;&gt;QuPathProjectHandler&lt;br&gt;&lt;/font&gt;+ geojson_handler: &lt;font face=&quot;Roboto Mono&quot;&gt;HGeoJSONHandler&lt;br&gt;&lt;/font&gt;+ qugeococo_categories:&amp;nbsp;&lt;font face=&quot;Roboto Mono&quot;&gt;str&lt;/font&gt;&lt;font face=&quot;Roboto Mono&quot;&gt;&lt;br&gt;&lt;/font&gt;+ coco_style:&amp;nbsp;&lt;font face=&quot;Roboto Mono&quot;&gt;CocoStyle&lt;/font&gt;&lt;font face=&quot;Roboto Mono&quot;&gt;&lt;br&gt;&lt;/font&gt;" style="text;html=1;strokeColor=none;fillColor=none;align=left;verticalAlign=middle;spacingLeft=4;spacingRight=4;overflow=hidden;rotatable=0;points=[[0,0.5],[1,0.5]];portConstraint=eastwest;labelBackgroundColor=none;fontColor=#000000;" parent="30" vertex="1"><mxGeometry y="128" width="330" height="82" as="geometry"/></mxCell><mxCell id="38" value="&lt;span style=&quot;font-family: &amp;quot;Roboto mono&amp;quot;, Consolas, &amp;quot;Courier New&amp;quot;, monospace; font-size: 14px;&quot;&gt;&lt;b&gt;CocoStyle&lt;/b&gt;&lt;/span&gt;" style="swimlane;fontStyle=0;align=center;verticalAlign=top;childLayout=stackLayout;horizontal=1;startSize=30;horizontalStack=0;resizeParent=1;resizeParentMax=0;resizeLast=0;collapsible=0;marginBottom=0;html=1;labelBackgroundColor=none;fontColor=#000000;" parent="1" vertex="1"><mxGeometry x="40" y="445" width="330" height="210" as="geometry"/></mxCell><mxCell id="39" value="&lt;span style=&quot;&quot;&gt;+ __init__(&lt;br&gt;&lt;span style=&quot;white-space: pre;&quot;&gt;&#9;&lt;/span&gt;images_field,&lt;br&gt;&lt;span style=&quot;white-space: pre;&quot;&gt;&#9;&lt;/span&gt;categories_field,&lt;br&gt;&lt;span style=&quot;white-space: pre;&quot;&gt;&#9;&lt;/span&gt;annotations_field: List[str]&lt;br&gt;)&lt;br&gt;&lt;/span&gt;" style="text;html=1;strokeColor=none;fillColor=none;align=left;verticalAlign=middle;spacingLeft=4;spacingRight=4;overflow=hidden;rotatable=0;points=[[0,0.5],[1,0.5]];portConstraint=eastwest;labelBackgroundColor=none;fontColor=#000000;" parent="38" vertex="1"><mxGeometry y="30" width="330" height="90" as="geometry"/></mxCell><mxCell id="40" value="" style="line;strokeWidth=1;fillColor=none;align=left;verticalAlign=middle;spacingTop=-1;spacingLeft=3;spacingRight=3;rotatable=0;labelPosition=right;points=[];portConstraint=eastwest;labelBackgroundColor=#9a7e7e;fontColor=#000000;" parent="38" vertex="1"><mxGeometry y="120" width="330" height="8" as="geometry"/></mxCell><mxCell id="41" value="+&amp;nbsp;&lt;span style=&quot;&quot;&gt;images_field&lt;/span&gt;:&amp;nbsp;&lt;font face=&quot;Roboto Mono&quot;&gt;ImagesField&lt;br&gt;&lt;/font&gt;+ categories_field:&amp;nbsp;&lt;font face=&quot;Roboto Mono&quot;&gt;CategoriesField&lt;br&gt;&lt;/font&gt;+ annotations_field:&amp;nbsp;&lt;font face=&quot;Roboto Mono&quot;&gt;AnnotationsField&lt;/font&gt;&lt;font face=&quot;Roboto Mono&quot;&gt;&lt;br&gt;&lt;/font&gt;" style="text;html=1;strokeColor=none;fillColor=none;align=left;verticalAlign=middle;spacingLeft=4;spacingRight=4;overflow=hidden;rotatable=0;points=[[0,0.5],[1,0.5]];portConstraint=eastwest;labelBackgroundColor=none;fontColor=#000000;" parent="38" vertex="1"><mxGeometry y="128" width="330" height="82" as="geometry"/></mxCell><mxCell id="42" style="edgeStyle=none;html=1;entryX=0.455;entryY=0.333;entryDx=0;entryDy=0;entryPerimeter=0;fontColor=#000000;exitX=0.007;exitY=0.178;exitDx=0;exitDy=0;exitPerimeter=0;" parent="1" source="19" target="31" edge="1"><mxGeometry relative="1" as="geometry"/></mxCell></root></mxGraphModel></diagram></mxfile>